PathFileType	4	(X/Y/Z)	C:/Users/beibeiliu/ov580/test_trc/User2\sequence.18_training_dense_left.trc
DataRate	CameraRate	NumFrames	NumMarkers	Units	OrigDataRate	OrigDataStartFrame	OrigNumFrames
120	120	21	19	mm	120	54	429
Frame#	Time	ThumbCMC			ThumbMCP			ThumbIP			ThumbTip			IndexMCP			IndexPIP			IndexTip			MiddleMCP			MiddlePIP			MiddleTip			RingMCP			RingPIP			RingTip			PinkyMCP			PinkyPIP			PinkyTip			BackHand1			BackHand2			BackHand3	
		X0	Y0	Z0	X1	Y1	Z1	X2	Y2	Z2	X3	Y3	Z3	X4	Y4	Z4	X5	Y5	Z5	X6	Y6	Z6	X7	Y7	Z7	X8	Y8	Z8	X9	Y9	Z9	X10	Y10	Z10	X11	Y11	Z11	X12	Y12	Z12	X13	Y13	Z13	X14	Y14	Z14	X15	Y15	Z15	X16	Y16	Z16	X17	Y17	Z17	X18	Y18	Z18	
53	0.441667	-204.979	0.70293	45.5976	-199.499	4.08127	5.68916	-178.04	-9.554	-23.6468	-156.537	-27.8771	-11.5228	-203.137	-45.5272	-25.0937	-184.85	-29.1628	-46.5214	-180.381	-9.89565	-18.7617	-186.191	-59.8468	-30.6851	-164.358	-37.5261	-45.3929	-167.425	-21.3124	-9.23524	-166.476	-65.5249	-21.3657	-148.888	-47.3842	-35.8919	-152.512	-27.702	-6.47888	-148.467	-67.9635	-2.59355	-137.103	-44.7884	-22.3907	-137.988	-26.9223	4.39681	-174.227	-65.6061	45.364	-178.053	-57.9438	74.5588	-208.309	-42.5326	47.529	
54	0.45	-204.143	1.20404	42.3128	-198.081	8.03199	8.9556	-179.645	-7.54431	-22.323	-159.828	-28.6117	-12.0422	-208.07	-41.1811	-26.4838	-186.845	-24.2521	-46.3034	-181.405	-8.29321	-17.6452	-190.137	-60.2731	-29.0421	-170.036	-36.5088	-45.5413	-171.302	-20.1178	-9.7039	-170.415	-67.6203	-21.1617	-152.004	-47.232	-36.4745	-156.259	-30.5735	-6.82714	-155.156	-70.4429	-8.05695	-141.671	-48.1994	-25.2929	-142.018	-32.0329	2.24006	-180.426	-66.24	41.2421	-178.874	-57.6132	73.9972	-209.14	-37.86	48.6262	
55	0.458333	-199.417	2.90295	45.0335	-195.674	10.3163	7.59665	-178.948	-6.62504	-18.7125	-161.072	-32.9796	-14.4818	-211.982	-35.9135	-24.4647	-191.313	-22.4579	-45.8461	-182.109	-6.89217	-15.386	-198.834	-53.9149	-30.2587	-175.346	-33.423	-47.9609	-169.432	-21.2178	-11.7845	-181.498	-63.9319	-21.8373	-158.377	-45.0883	-38.7069	-158.599	-31.2523	-7.73104	-162.421	-72.5335	-8.92012	-149.514	-51.6708	-29.0944	-141.421	-34.6929	1.98492	-186.924	-62.1599	39.5589	-186.436	-56.7497	70.0543	-211.616	-36.1847	52.1687	
56	0.466667	-199.381	6.02336	43.9837	-194.662	14.4845	7.93758	-180.745	-2.7661	-22.9241	-164.323	-30.4532	-17.6485	-216.53	-28.4294	-27.5251	-195.619	-15.6245	-46.9731	-183.695	-1.78732	-18.003	-203.791	-49.2632	-33.3694	-177.124	-31.5681	-47.3382	-173.576	-20.6102	-9.1332	-187.059	-61.0551	-23.7185	-164.391	-44.2931	-40.7701	-163.859	-30.0995	-8.08787	-170.311	-69.1408	-8.01203	-155.986	-52.8924	-32.3944	-143.354	-35.3228	-4.45255	-190.325	-65.0785	34.3297	-187.915	-59.1081	71.4806	-212.91	-31.034	47.3322	
57	0.475	-194.396	7.84905	48.8816	-191.3	16.9858	12.9489	-179.268	-3.20201	-18.5889	-167.181	-26.7847	-14.2554	-216.629	-21.5458	-29.3548	-194.065	-13.135	-45.7804	-183.548	0.385251	-14.904	-207.17	-44.625	-33.4836	-182.603	-30.447	-50.7814	-175.539	-17.8159	-9.79632	-192.456	-56.827	-29.9486	-171.387	-41.0669	-44.7095	-163.697	-28.8217	-13.7908	-174.985	-68.6765	-11.6594	-156.377	-51.16	-34.974	-143.364	-34.7923	-9.75924	-191.643	-61.0277	35.1013	-193.089	-54.9392	67.8347	-212.76	-29.501	50.0168	
58	0.483333	-192.415	12.8445	50.1087	-186.575	19.0105	14.0275	-177.834	4.56798	-17.5021	-168.193	-26.4747	-16.8134	-216.915	-16.1091	-25.5681	-194.957	-8.5733	-46.2869	-180.892	2.28522	-11.4988	-209.56	-38.6871	-30.9471	-181.854	-23.7408	-48.511	-174.636	-14.3242	-10.7477	-196.203	-54.4822	-26.935	-173.538	-40.6233	-45.254	-163.556	-27.9177	-15.9012	-179.689	-67.9491	-13.6066	-163.61	-51.1045	-36.3859	-146.659	-35.7052	-9.74879	-198.255	-55.7251	31.7687	-193.169	-55.7012	67.7765	-213.147	-27.2443	48.6386	
59	0.491667	-187.747	14.3464	52.3725	-181.114	21.3286	15.6963	-174.062	7.82437	-16.936	-167.28	-22.5498	-18.1561	-216.734	-7.83976	-28.6111	-191.832	1.61994	-44.149	-177.53	4.0695	-14.9793	-212.006	-33.8637	-33.7679	-186.919	-21.2025	-51.5713	-172.126	-15.8369	-13.6128	-199.154	-50.0107	-30.5819	-176.484	-35.4153	-45.3643	-162.916	-27.7571	-11.7111	-183.28	-64.9586	-12.3653	-163.926	-49.1757	-36.8876	-150.562	-37.8687	-13.5226	-198.102	-58.0599	35.558	-196.142	-57.1649	66.5967	-214.302	-20.6944	49.8605	
60	0.5	-184.337	14.9852	54.1756	-176.651	23.0603	19.2007	-171.395	12.4459	-19.6257	-167.681	-15.0575	-23.2935	-214.855	-3.66466	-21.4522	-192.065	1.3797	-44.3863	-174.175	5.16878	-9.58581	-214.874	-24.6836	-31.4795	-188.575	-19.1574	-51.3673	-171.354	-8.1889	-13.1154	-201.564	-45.2534	-29.5718	-176.497	-35.5413	-46.099	-162.845	-25.0812	-15.8604	-188.493	-60.5293	-13.8235	-169.32	-50.246	-38.2819	-148.583	-37.9364	-16.1857	-202.914	-52.0059	30.9776	-198.303	-52.9694	67.7523	-210.406	-21.963	50.0926	
61	0.508333	-180.067	16.159	54.3372	-171.047	26.6558	20.7736	-166.668	22.4057	-15.3143	-167.031	-6.22978	-32.8203	-213.13	0.270842	-20.3102	-189.839	4.87339	-43.0165	-171.295	10.0786	-11.4404	-213.292	-19.4813	-32.3502	-183.978	-15.2485	-48.7568	-168.595	-8.42546	-12.6381	-201.519	-42.8368	-28.5746	-177.6	-31.1481	-45.9236	-160.428	-27.6808	-13.0522	-192.726	-61.0103	-16.6842	-171.533	-47.0679	-38.5036	-153.543	-37.6564	-14.3378	-204.332	-50.1206	30.3933	-200.401	-51.0594	64.1419	-212.004	-13.4313	53.8389	
62	0.516667	-174.928	15.3515	57.035	-167.988	26.0127	21.1221	-163.836	25.2931	-10.4539	-167.344	2.28592	-33.6396	-211.917	8.87444	-21.4818	-190.233	11.5319	-42.7321	-170.168	8.20111	-9.41993	-212.06	-12.4986	-29.7478	-181.468	-7.64896	-47.8823	-164.503	-10.3577	-12.4152	-203.44	-35.4766	-30.6173	-179.672	-26.361	-46.5148	-161.27	-25.82	-11.9866	-196.531	-55.0643	-15.9084	-174.308	-44.9167	-38.8227	-152.413	-38.974	-12.8707	-207.916	-44.2397	35.9266	-202.96	-46.2961	65.3435	-209.162	-11.131	53.1857	
63	0.525	-170.67	13.2739	57.8406	-162.176	26.3071	25.5122	-160.309	26.7666	-8.75324	-164.462	7.495	-32.4056	-208.364	16.5329	-17.8943	-186.001	16.4488	-40.3139	-166.22	12.4185	-9.77109	-209.849	-5.17238	-30.8274	-181.52	-3.18091	-48.1146	-163.022	-5.12197	-11.8136	-205.738	-27.2212	-27.1028	-179.514	-21.4196	-45.2588	-162.087	-25.3636	-14.2542	-200.149	-46.9205	-14.0383	-177.714	-41.3016	-39.4564	-157.162	-35.9686	-12.2954	-209.817	-37.6831	33.887	-207.711	-48.6355	65.8411	-209.315	-5.66415	52.6112	
64	0.533333	-167.641	10.3311	59.0501	-152.969	25.4879	30.543	-153.822	28.0558	-10.3572	-159.634	8.11688	-28.9406	-203.133	24.3894	-17.0605	-179.523	22.1612	-37.7894	-160.384	16.1171	-11.195	-208.636	7.79609	-27.423	-178.098	2.04631	-45.6383	-162.866	-5.55185	-9.44961	-208.358	-18.1439	-29.8693	-181.761	-16.0457	-45.7174	-165.241	-21.2281	-12.3877	-203.255	-36.726	-16.6246	-179.37	-33.1253	-38.7672	-159.108	-40.22	-13.8031	-213.359	-32.7269	32.8159	-209.986	-41.6073	63.8427	-204.125	-1.45164	54.5604	
65	0.541667	-160.663	8.37058	61.8334	-147.634	22.2465	28.8884	-143.609	22.2357	-3.0858	-157.059	6.29762	-26.6735	-194.555	33.57	-7.57251	-173.652	27.445	-33.4997	-154.069	14.4404	-4.63938	-204.967	19.8207	-23.1574	-178.741	8.83693	-44.0364	-163.163	-5.44101	-11.969	-205.951	-1.65155	-26.382	-181.001	-6.666	-42.2862	-167.932	-19.747	-12.0478	-205.929	-24.574	-19.0257	-181.721	-28.0093	-38.1606	-164.156	-33.3197	-9.79469	-213.699	-24.8572	35.1806	-216.522	-35.8099	61.4218	-202.793	1.19374	57.9329	
66	0.55	-154.562	6.45944	65.0531	-138.213	19.7054	34.3178	-141.216	18.3939	-3.26072	-157.908	3.23287	-25.4796	-185.623	40.3082	-1.85212	-166.934	34.4296	-29.5784	-148.825	16.1692	-2.72782	-201.44	27.87	-19.091	-177.178	22.6807	-41.7552	-162.234	0.104004	-7.66116	-205.254	6.99171	-23.3429	-182.699	-0.857029	-42.4054	-167.994	-13.9723	-13.1886	-209.299	-18.3164	-13.8622	-184.848	-17.0853	-35.3613	-170.073	-35.1796	-12.438	-214.686	-16.0052	37.8868	-215.838	-29.8986	62.7158	-198.368	6.04035	62.3608	
67	0.558333	-151.81	4.90428	67.6338	-135.279	15.1187	36.1727	-139.692	16.5707	-3.06247	-162.357	-1.1509	-18.6762	-180.752	41.2232	0.389509	-162.447	37.6717	-25.4541	-145.086	15.688	-1.92513	-196.538	31.4962	-14.1798	-173.397	22.6778	-38.0604	-161.529	0.276894	-7.76547	-203.843	13.1956	-19.457	-180.195	4.85757	-38.0213	-169.861	-11.102	-9.01954	-209.945	-9.83224	-15.8616	-184.879	-13.6404	-35.163	-173.093	-29.7563	-8.34076	-215.593	-11.3469	38.7337	-215.194	-24.7635	63.7558	-194.714	7.84102	63.8418	
68	0.566667	-150.09	0.966286	69.4665	-132.931	12.3431	36.5713	-139.809	12.2568	2.11835	-162.076	-0.873071	-18.9686	-175.1	45.298	0.813831	-156.481	35.2019	-23.7544	-146.958	11.9464	-0.0736228	-193.613	35.9812	-12.1426	-172.782	25.5846	-36.6009	-158.986	2.8242	-6.50177	-201.942	18.2069	-15.0839	-181.186	9.98053	-37.1357	-171.37	-11.7716	-11.5555	-212.766	-6.9929	-13.5297	-186.677	-7.24841	-34.1294	-173.162	-24.1543	-10.7384	-214.048	-6.10349	36.8891	-219.695	-22.8521	65.1054	-193.353	7.91424	63.3324	
69	0.575	-152.071	-4.58446	69.0921	-134.789	8.71315	35.7737	-139.816	11.3542	-0.206418	-161.614	-0.323883	-19.0704	-168.832	48.0222	3.06617	-153.588	34.5969	-21.5092	-145.88	10.7613	1.63397	-189.97	38.6789	-13.5354	-170.763	26.0412	-35.8938	-159.885	1.92288	-2.7681	-202.833	19.6738	-16.5924	-183.597	12.2195	-38.2916	-171.242	-8.1493	-9.86855	-213.703	-1.20577	-12.4815	-188.67	-2.84385	-33.5747	-175.435	-24.3691	-15.1078	-216.218	-5.7782	40.6277	-219.981	-23.3807	68.1943	-191.799	8.03565	65.525	
70	0.583333	-149.031	-5.21588	69.2622	-135.186	3.44528	37.4961	-138.762	8.34082	-0.482919	-163.265	0.402403	-18.4254	-165.75	48.3514	4.34685	-150.261	39.8916	-21.1858	-145.279	7.90678	3.44995	-184.731	41.4751	-8.04798	-168.581	27.6782	-34.1767	-157.288	3.63875	-4.47522	-202.44	23.4863	-14.4647	-179.004	14.0084	-34.8066	-174.202	-8.88612	-5.77126	-214.523	3.4772	-12.4802	-193.635	-1.71392	-35.8349	-178.043	-22.0191	-11.0253	-216.362	-1.77601	38.4639	-216.427	-17.7973	69.1658	-189.925	8.47694	66.9586	
71	0.591667	-149.505	-4.66873	66.1436	-130.247	0.700046	37.3526	-138.632	5.76862	0.575265	-161.471	0.383849	-20.5911	-166.112	45.0677	2.59761	-149.305	34.0312	-20.5926	-145.281	6.71404	3.81	-184.322	43.2443	-7.35003	-164.661	29.9133	-32.8027	-158.614	2.05697	-1.68016	-197.816	28.3238	-15.6403	-181.932	18.5627	-36.0741	-175.215	-8.46609	-6.41602	-214.594	3.92011	-8.24368	-192.613	2.40837	-33.481	-179.103	-21.1663	-11.8467	-215.056	2.15455	37.7596	-219.406	-14.3964	67.4456	-186.544	12.2303	67.0049	
72	0.6	-147.913	-9.49435	68.9527	-130.23	-1.27993	36.4945	-133.475	6.04023	-1.16978	-160.598	0.882091	-17.9051	-162.869	45.9466	2.73227	-149.713	33.8289	-22.3468	-143.213	6.13718	-0.0745044	-183.217	44.3116	-10.5845	-166.525	25.585	-33.767	-161.913	0.559065	-4.61368	-198.449	29.7844	-15.4396	-179.082	17.4489	-35.7236	-174.009	-6.39921	-6.32233	-212.074	9.54157	-6.56047	-195.278	5.6106	-34.1794	-183.684	-21.9104	-15.8176	-216.898	3.73983	40.814	-219.208	-12.6864	71.0599	-187.829	10.2502	67.5018	
73	0.608333	-148.799	-12.1922	67.9039	-132.355	-2.58031	35.3795	-135.32	4.57495	-2.81058	-156.539	1.26459	-21.0959	-157.173	45.5956	5.4826	-143.509	33.5477	-22.2849	-145.544	3.33629	0.890684	-177.235	45.662	-7.12351	-165.613	30.0956	-34.4152	-162.535	-0.175059	-3.27883	-195.077	33.1242	-11.8124	-177.823	18.6936	-34.4668	-176.718	-6.15982	-7.3742	-211.65	16.4008	-9.30925	-195.926	6.31435	-35.2233	-185.532	-16.8203	-11.8507	-210.935	9.51297	40.6731	-220.846	-8.20261	65.8531	-184.919	11.9759	65.6202	
